<svg width="16" height="16" viewBox="0 0 16 16" fill="none" xmlns="http://www.w3.org/2000/svg">
<g clip-path="url(#clip0_725_470)">
<rect width="16" height="16" fill="white" fill-opacity="0.01"/>
<g clip-path="url(#clip1_725_470)">
<path d="M15.5446 6.55719C15.6379 7.09414 15.6844 7.63819 15.6836 8.18319C15.6836 10.6172 14.8136 12.6752 13.2996 14.0682H13.3016C11.9776 15.2912 10.1576 15.9992 7.99965 15.9992C5.87792 15.9992 3.84309 15.1563 2.34279 13.656C0.842504 12.1557 -0.000350952 10.1209 -0.000350952 7.99919C-0.000350952 5.87745 0.842504 3.84262 2.34279 2.34233C3.84309 0.84204 5.87792 -0.000814887 7.99965 -0.000814887C9.98559 -0.0240732 11.9035 0.722018 13.3516 2.08119L11.0676 4.36519C10.242 3.57816 9.14015 3.14718 7.99965 3.16518C5.91265 3.16518 4.13965 4.57318 3.50765 6.46918C3.17256 7.46269 3.17256 8.53868 3.50765 9.53219H3.51065C4.14565 11.4252 5.91565 12.8332 8.00265 12.8332C9.08065 12.8332 10.0066 12.5572 10.7246 12.0692H10.7216C11.1386 11.793 11.4952 11.4352 11.77 11.0174C12.0448 10.5996 12.2321 10.1304 12.3206 9.63819H7.99965V6.55819H15.5446V6.55719Z" fill="#0D6EFD"/>
</g>
</g>
<defs>
<clipPath id="clip0_725_470">
<rect width="16" height="16" fill="white"/>
</clipPath>
<clipPath id="clip1_725_470">
<rect width="16" height="16" fill="white"/>
</clipPath>
</defs>
</svg>
